Coordinates
version=1
nRows=18
nColumns=22
inDegrees=yes

Units are S.I. units (second, meters, Newtons, ...)
If the header above contains a line with 'inDegrees', this indicates whether rotational values are in degrees (yes) or radians (no).

endheader
time	pelvis_tilt	pelvis_list	pelvis_rotation	pelvis_tx	pelvis_ty	pelvis_tz	hip_flexion_r	hip_adduction_r	hip_rotation_r	knee_angle_r	ankle_angle_r	subtalar_angle_r	hip_flexion_l	hip_adduction_l	hip_rotation_l	knee_angle_l	ankle_angle_l	subtalar_angle_l	lumbar_extension	lumbar_bending	lumbar_rotation
      3.61000000	     -8.70144741	      2.30753394	    -14.53747138	      1.65926066	      0.97989138	      0.53093073	     24.76105027	      0.04945387	     -3.95808682	    -31.00822149	     18.97003873	     -4.65345459	     23.31906574	      3.39990617	     -1.36116674	    -24.35478182	     16.49206845	     -1.64417674	      0.19029840	      0.50918359	      2.97954506
      3.62000000	     -8.72007794	      2.42370477	    -14.72300186	      1.66073401	      0.98019549	      0.53196031	     24.64735393	      0.02771533	     -3.81146944	    -30.86546427	     18.98691066	     -4.64886815	     23.04637130	      3.40577866	     -1.62014546	    -23.97738563	     16.51409753	     -1.64473106	      0.26372606	      0.37539510	      3.10283009
      3.63000000	     -8.71516600	      2.50961959	    -14.88099401	      1.66222777	      0.98053848	      0.53296870	     24.48286365	      0.02304082	     -3.68681662	    -30.69550135	     19.00601294	     -4.64441076	     22.74797000	      3.39695149	     -1.86119008	    -23.61239133	     16.54738785	     -1.63557290	      0.31056674	      0.26707017	      3.18766447
      3.64000000	     -8.70610826	      2.57817418	    -15.02544605	      1.66368577	      0.98086703	      0.53397175	     24.31387222	      0.03378416	     -3.57152619	    -30.53302275	     19.02381207	     -4.65168786	     22.44457204	      3.37626644	     -2.08540106	    -23.24823028	     16.58791944	     -1.61502990	      0.34878506	      0.17328847	      3.24681184
      3.65000000	     -8.69348779	      2.64642099	    -15.16267477	      1.66512396	      0.98116819	      0.53496095	     24.14343892	      0.04446250	     -3.45201132	    -30.37464336	     19.04785725	     -4.67802899	     22.14610947	      3.35919062	     -2.30097761	    -22.89741220	     16.63265019	     -1.58450659	      0.39096770	      0.07991622	      3.28870467
      3.66000000	     -8.69638720	      2.72134137	    -15.29731905	      1.66651568	      0.98140046	      0.53591289	     24.00295466	      0.05444261	     -3.31908222	    -30.23397092	     19.07936714	     -4.72031438	     21.87592759	      3.35051569	     -2.50373865	    -22.55972779	     16.68392661	     -1.55114370	      0.45524451	     -0.01200385	      3.32373969
      3.67000000	     -8.68864368	      2.79467386	    -15.42788385	      1.66787167	      0.98161723	      0.53685333	     23.85525782	      0.06446779	     -3.18252097	    -30.09870662	     19.12352429	     -4.78455613	     21.60772739	      3.34329337	     -2.72222258	    -22.23930986	     16.73595653	     -1.51141910	      0.50676594	     -0.10780764	      3.35139013
      3.68000000	     -8.67996077	      2.85991676	    -15.55356557	      1.66919906	      0.98180437	      0.53777642	     23.71073510	      0.08424807	     -3.03495983	    -29.97329776	     19.17339676	     -4.86293799	     21.35088665	      3.33303284	     -2.93025694	    -21.94259185	     16.79623608	     -1.47034032	      0.55802108	     -0.19327620	      3.37024098
      3.69000000	     -8.67027641	      2.91542636	    -15.67794955	      1.67049744	      0.98196764	      0.53868758	     23.56951039	      0.11510516	     -2.87971739	    -29.85845994	     19.22813152	     -4.95017188	     21.10479475	      3.31700040	     -3.13107171	    -21.66882660	     16.86287842	     -1.43124282	      0.60685966	     -0.26700254	      3.38248132
      3.70000000	     -8.65501876	      2.96597220	    -15.80383774	      1.67178178	      0.98211456	      0.53956965	     23.42581641	      0.14769015	     -2.72446865	    -29.74899547	     19.28066141	     -5.04843586	     20.86861336	      3.30238665	     -3.32921583	    -21.42449692	     16.93032589	     -1.39488947	      0.65157983	     -0.33228847	      3.39149959
      3.71000000	     -8.65710744	      3.01365024	    -15.91701431	      1.67302890	      0.98220131	      0.54040075	     23.31045430	      0.18438389	     -2.56500155	    -29.65877404	     19.33702600	     -5.14194117	     20.66830681	      3.29035454	     -3.49720875	    -21.20727181	     17.00325326	     -1.36980713	      0.71678926	     -0.38806284	      3.39198633
      3.72000000	     -8.67197383	      3.06350308	    -16.03153065	      1.67424437	      0.98223483	      0.54118137	     23.22366193	      0.21942948	     -2.40578313	    -29.59034750	     19.39665770	     -5.23038313	     20.50085239	      3.28401344	     -3.64322128	    -21.02072803	     17.07749197	     -1.35489899	      0.79926061	     -0.43579387	      3.39051358
      3.73000000	     -8.70044344	      3.10968179	    -16.14042947	      1.67543557	      0.98221758	      0.54190423	     23.16352074	      0.25659605	     -2.25123633	    -29.54540372	     19.46479215	     -5.30224833	     20.36793794	      3.27933760	     -3.75415481	    -20.86911913	     17.15977351	     -1.34786385	      0.89939973	     -0.46771674	      3.38780428
      3.74000000	     -8.72344098	      3.15130654	    -16.24559602	      1.67662927	      0.98220313	      0.54261499	     23.09341493	      0.29073722	     -2.11245959	    -29.49377437	     19.51969591	     -5.37679714	     20.25138652	      3.27113652	     -3.87102182	    -20.75877483	     17.23754623	     -1.34121734	      0.99807591	     -0.49605898	      3.39174838
      3.75000000	     -8.73789937	      3.17438019	    -16.34739306	      1.67780356	      0.98219996	      0.54334105	     23.00981167	      0.34135312	     -1.97872799	    -29.44116846	     19.56966564	     -5.45281249	     20.14425250	      3.24588062	     -3.97098509	    -20.69099255	     17.32534194	     -1.32983321	      1.08456430	     -0.51134690	      3.40390900
      3.76000000	     -8.75496444	      3.17815740	    -16.43411448	      1.67895645	      0.98219317	      0.54404045	     22.92333989	      0.40512794	     -1.86278463	    -29.38964817	     19.62562295	     -5.50113083	     20.06009227	      3.20877544	     -4.01998976	    -20.66793922	     17.41925293	     -1.31919849	      1.16941263	     -0.50156080	      3.40511909
      3.77000000	     -8.75771790	      3.16038145	    -16.53082870	      1.68009919	      0.98220941	      0.54476533	     22.81508846	      0.48617545	     -1.75858861	    -29.33491142	     19.66956006	     -5.55460946	     19.97761835	      3.14470010	     -4.09841610	    -20.68576209	     17.52423779	     -1.30535758	      1.23581301	     -0.47123896	      3.42797196
      3.78000000	     -8.75410616	      3.13062681	    -16.61866581	      1.68122386	      0.98222896	      0.54547348	     22.69405669	      0.57121829	     -1.67354864	    -29.27327101	     19.71248635	     -5.60426265	     19.90808932	      3.07343724	     -4.15712798	    -20.74405487	     17.63487382	     -1.29336788	      1.29348682	     -0.42910294	      3.45289711
